<svg version="1.0" xmlns="http://www.w3.org/2000/svg"
 width="300.000000pt" height="300.000000pt" viewBox="0 0 300.000000 300.000000"
 preserveAspectRatio="xMidYMid meet">
<metadata>
Created by potrace 1.16, written by Peter Selinger 2001-2019
</metadata>
<g transform="translate(0.000000,300.000000) scale(0.100000,-0.100000)"
fill="#D8DFE5" stroke="none">
<path d="M1413 2889 c-154 -30 -293 -156 -360 -325 -25 -63 -27 -81 -27 -204
0 -123 2 -141 27 -204 137 -346 524 -443 770 -194 111 112 161 240 159 408 -2
331 -273 578 -569 519z"/>
<path d="M1201 1695 c-198 -30 -431 -108 -488 -164 -56 -53 -488 -733 -568
-891 -69 -137 -65 -164 68 -407 l72 -133 181 0 181 0 6 68 c20 239 209 479
463 585 118 50 203 69 337 74 287 12 505 -67 693 -252 78 -77 98 -104 137
-185 42 -86 54 -129 72 -252 l6 -38 177 0 177 0 23 43 c140 252 157 290 157
357 0 58 -5 74 -46 150 -25 47 -128 218 -228 380 -101 162 -206 332 -235 378
-87 141 -119 162 -366 236 -165 49 -241 58 -490 62 -167 2 -262 -1 -329 -11z"/>
<path d="M1420 629 c-198 -16 -396 -126 -493 -272 -42 -64 -77 -161 -77 -217
l0 -40 656 0 656 0 -7 53 c-16 117 -69 213 -171 306 -140 128 -340 188 -564
170z"/>
</g>
</svg>
