<svg id="a78282ef-79d6-49ed-80f0-f06a9b15697f" data-name="Layer 1" xmlns="http://www.w3.org/2000/svg" viewBox="0 0 960 156"><defs><style>.e51c053a-0a9e-4d18-bf0f-296fe8ea0c2f{fill:#D8DFE5;}</style></defs><path id="e5a66c0d-b33c-4aeb-bfbd-eae5943e3413" data-name="path29229" class="e51c053a-0a9e-4d18-bf0f-296fe8ea0c2f" d="M96.83,276.81H0v9.57H96.83Zm0-68.43H0v9.77H96.83ZM0,347.37v9.78H96.83v-9.78Z" transform="translate(0 -202)"/><path id="bd1e3fbf-ccb3-4b82-9c04-cfdc8f768b78" data-name="path29231" class="e51c053a-0a9e-4d18-bf0f-296fe8ea0c2f" d="M247.73,347.37H142.35L245.38,216v-7.65H128.45v9.77h102L127.17,349.5v7.65H247.73Z" transform="translate(0 -202)"/><path id="eda7f8e6-8240-4bf7-928b-3b30930321ec" data-name="path29233" class="e51c053a-0a9e-4d18-bf0f-296fe8ea0c2f" d="M310,218.15v139h10.9v-139h53.87v-9.77H256.17v9.77Z" transform="translate(0 -202)"/><path id="bf5a7b87-cf18-4555-a30c-f8ae791dfe0e" data-name="path29235" class="e51c053a-0a9e-4d18-bf0f-296fe8ea0c2f" d="M421.58,252a37.86,37.86,0,0,0-16,18.49V246.21H395.29V357.15H406V299.34c0-13.6,3.42-24.44,10.47-32.09,6.84-7.65,16.68-11.69,29.07-11.69l2.57.21V245.36c-10.48,0-19.24,2.33-26.51,6.59Z" transform="translate(0 -202)"/><path id="e83667fe-9fee-4e5b-99bc-0ff893769512" data-name="path29237" class="e51c053a-0a9e-4d18-bf0f-296fe8ea0c2f" d="M547,256c-7.48-7-18.17-10.62-31.85-10.62a72.65,72.65,0,0,0-24.58,4.25,59.89,59.89,0,0,0-20.1,11.47l5.35,7.66a52.13,52.13,0,0,1,17.1-10.21,60.38,60.38,0,0,1,21.37-3.82c10.69,0,19,2.76,24.59,8.07,5.55,5.53,8.55,13.39,8.55,23.6v8.92H509.17c-14.53,0-25.22,3-31.85,8.72s-9.83,13.17-9.83,22.31c0,9.57,3.42,17.22,10.69,23,7.27,5.95,17.1,8.71,29.5,8.71,9.4,0,17.74-1.7,24.58-5.31a37.27,37.27,0,0,0,15.6-15.31v19.77h10.26V286.8c0-13.6-3.84-23.8-11.11-30.82Zm-14.32,86.93c-6.42,4.25-14.33,6.38-23.52,6.38-9.83,0-17.53-1.92-22.87-6.17-5.56-4.25-8.12-10-8.12-17.21,0-6.8,2.35-12.33,7.27-16.37,4.91-3.82,12.82-6,23.94-6h38.05v20.83Q542.31,336.54,532.69,342.91Z" transform="translate(0 -202)"/><path id="a0238b61-9eda-4a16-bdd4-e4ca15efd69a" data-name="path29239" class="e51c053a-0a9e-4d18-bf0f-296fe8ea0c2f" d="M690,257.47c-8.12-8.07-19.24-12.11-33.13-12.11-10.48,0-19.46,2.33-27.15,6.59a42.76,42.76,0,0,0-17.1,18.27v-24H602.37V357.15h10.69V298.07c0-13.18,3.63-23.6,11.33-31.46,7.48-7.65,17.74-11.69,31-11.69,11.33,0,20.09,3.4,26.51,9.78,6.41,6.59,9.62,16.15,9.62,28.48v64h10.68V292.33c0-15.09-4.06-26.78-12.18-34.86Z" transform="translate(0 -202)"/><path id="bb04d0db-7c73-4fbc-ba5e-4121b7e13e09" data-name="path29241" class="e51c053a-0a9e-4d18-bf0f-296fe8ea0c2f" d="M749,354a79.1,79.1,0,0,0,25.65,4c13.9,0,24.8-2.76,32.49-8.29s11.55-12.75,11.55-22.1c0-6.8-1.93-12.33-5.56-16.37a33.91,33.91,0,0,0-13.68-8.5,202.5,202.5,0,0,0-20.95-5.1c-7.91-1.49-14.11-3-18.38-4.25a27.62,27.62,0,0,1-10.91-6.16c-3-2.77-4.49-6.59-4.49-11.69a17.71,17.71,0,0,1,7.91-15.09c5.13-3.83,13-5.74,23.52-5.74a65.41,65.41,0,0,1,18,2.55,55.67,55.67,0,0,1,15.61,7.44l4.91-8.5c-4.49-3.19-10.26-5.74-17.1-7.87a80.81,80.81,0,0,0-21.16-3c-13.68,0-24.15,3-31.42,8.71S734,267,734,275.75c0,7.23,1.92,13,5.77,17a30.18,30.18,0,0,0,13.89,8.93,127.22,127.22,0,0,0,21.38,5.1c7.48,1.49,13.46,2.76,17.74,4a28.88,28.88,0,0,1,10.69,5.95c3,2.76,4.49,6.37,4.49,11.05a17.49,17.49,0,0,1-8.13,15.3c-5.34,3.83-13.68,5.53-24.79,5.53a67.66,67.66,0,0,1-22.66-3.83,54.54,54.54,0,0,1-17.53-9.56l-4.91,8.5c4.48,4.25,10.9,7.65,19,10.2Z" transform="translate(0 -202)"/><path id="ff5679bc-3072-4a01-a648-eb4db4f24e93" data-name="path29243" class="e51c053a-0a9e-4d18-bf0f-296fe8ea0c2f" d="M848.69,246.21V357.15h10.69V246.21Zm-.85-29.33a8.08,8.08,0,0,0,6.2,2.34,8.54,8.54,0,0,0,6.19-2.56,8.15,8.15,0,0,0,2.57-6.16,8,8,0,0,0-2.57-5.95A8.57,8.57,0,0,0,854,202a8.24,8.24,0,0,0-6.2,2.55,8.5,8.5,0,0,0-2.57,6.16A8.17,8.17,0,0,0,847.84,216.88Z" transform="translate(0 -202)"/><path id="bdd90b79-3b2c-4bea-9e7c-7f9fd7f2cd5a" data-name="path29245" class="e51c053a-0a9e-4d18-bf0f-296fe8ea0c2f" d="M960,350.14l-4.49-7.44c-4.7,4.25-10.47,6.16-17.31,6.16s-12.19-1.7-15.61-5.52-5.13-9.36-5.13-16.58V255.35H953v-9.14H917.46V222H906.77v24.23H886.25v9.14h20.52v72.47c0,9.56,2.57,17,7.91,22.32,5.13,5.31,12.61,7.86,22.45,7.86a42.37,42.37,0,0,0,12.61-1.91A27.24,27.24,0,0,0,960,350.14Z" transform="translate(0 -202)"/></svg>