<svg version="1.0" xmlns="http://www.w3.org/2000/svg"
 width="920.000000pt" height="920.000000pt" viewBox="0 0 920.000000 920.000000"
 preserveAspectRatio="xMidYMid meet">
<metadata>
Created by potrace 1.16, written by Peter Selinger 2001-2019
</metadata>
<g transform="translate(0.000000,920.000000) scale(0.100000,-0.100000)"
fill="#D8DFE5" stroke="none">
<path d="M4422 9190 c-675 -86 -1234 -613 -1416 -1339 -59 -232 -76 -544 -42
-773 114 -780 641 -1378 1346 -1529 87 -19 136 -23 290 -23 154 0 203 4 290
23 636 136 1133 639 1304 1320 79 312 79 670 0 982 -172 684 -673 1191 -1304
1319 -120 25 -352 34 -468 20z"/>
<path d="M377 7563 c-196 -159 -355 -291 -354 -295 1 -4 193 -211 427 -460
234 -249 773 -824 1199 -1278 425 -454 808 -861 850 -905 43 -44 491 -521 996
-1060 1020 -1087 2411 -2569 2978 -3172 l369 -393 611 0 611 0 -50 52 c-90 95
-182 194 -889 953 -735 789 -4458 4785 -5864 6293 -283 303 -518 552 -522 552
-3 0 -167 -129 -362 -287z"/>
<path d="M4060 5329 c-206 -5 -391 -9 -411 -11 l-37 -3 126 -135 c69 -74 457
-490 861 -925 405 -434 1111 -1193 1570 -1685 459 -492 1075 -1154 1370 -1470
295 -316 555 -595 578 -620 l43 -45 -5 45 c-3 25 -23 236 -46 470 -155 1655
-275 2702 -341 2980 -83 354 -307 644 -673 875 -128 81 -407 216 -560 270
-602 216 -1230 280 -2475 254z"/>
<path d="M1813 4575 c-241 -242 -357 -475 -422 -845 -103 -576 -263 -2127
-384 -3692 l-3 -38 2665 0 2664 0 -20 22 c-21 25 -1436 1533 -2553 2723 -1566
1668 -1747 1861 -1787 1904 l-41 46 -119 -120z"/>
</g>
</svg>
